<svg width="64" height="64" viewBox="0 0 64 64" fill="none" xmlns="http://www.w3.org/2000/svg">
<g id="Bold / Messages, Conversation / Pen New Round">
<g id="Vector">
<path d="M56.5167 7.48336C59.3833 10.35 59.3833 14.9978 56.5167 17.8644L55.1952 19.1859C54.8104 19.1026 54.3259 18.9757 53.7736 18.7841C52.2954 18.2713 50.3527 17.3021 48.5253 15.4747C46.698 13.6473 45.7288 11.7047 45.2159 10.2264C45.0243 9.67419 44.8975 9.18961 44.8142 8.80482L46.1356 7.48336C49.0023 4.61671 53.65 4.61671 56.5167 7.48336Z" fill="#3773FF"/>
<path d="M38.8802 35.5009C37.8028 36.5783 37.2641 37.117 36.6702 37.5802C35.9695 38.1267 35.2114 38.5953 34.4093 38.9775C33.7293 39.3016 33.0066 39.5425 31.5611 40.0243L23.9389 42.5651C23.2276 42.8022 22.4434 42.617 21.9132 42.0869C21.383 41.5567 21.1979 40.7725 21.435 40.0611L23.9757 32.4389C24.4575 30.9935 24.6984 30.2707 25.0225 29.5908C25.4048 28.7886 25.8733 28.0305 26.4198 27.3299C26.8831 26.7359 27.4218 26.1972 28.4991 25.1199L41.6087 12.0103C42.3121 13.8615 43.5448 16.1511 45.6969 18.3031C47.849 20.4552 50.1386 21.6879 51.9897 22.3914L38.8802 35.5009Z" fill="#3773FF"/>
<path d="M32 58.6667C46.7276 58.6667 58.6667 46.7276 58.6667 32C58.6667 28.8219 58.1107 25.7737 57.0907 22.9472L41.5626 38.4754C40.626 39.4125 39.9222 40.1166 39.1303 40.7343C38.2005 41.4594 37.1946 42.0812 36.1302 42.5884C35.2235 43.0205 34.2791 43.3351 33.022 43.7538L25.2038 46.3598C23.0552 47.076 20.6863 46.5168 19.0848 44.9153C17.4832 43.3138 16.924 40.9449 17.6402 38.7962L20.2463 30.978C20.665 29.721 20.9795 28.7765 21.4116 27.8699C21.9189 26.8055 22.5406 25.7995 23.2658 24.8698C23.8835 24.0778 24.5876 23.3741 25.5246 22.4375L41.0528 6.90931C38.2264 5.88934 35.1781 5.33337 32 5.33337C17.2724 5.33337 5.33334 17.2724 5.33334 32C5.33334 46.7276 17.2724 58.6667 32 58.6667Z" fill="#3773FF"/>
</g>
</g>
</svg>
