<svg width="64" height="64" viewBox="0 0 64 64" fill="none" xmlns="http://www.w3.org/2000/svg">
<g id="Bold / Sports / Ranking">
<g id="Vector">
<path d="M29.3333 26.6667H34.6667C38.4379 26.6667 40.3235 26.6667 41.4951 27.8383C42.6667 29.0099 42.6667 30.8955 42.6667 34.6667V50.6667C42.6667 46.8955 42.6667 45.0099 43.8382 43.8383C45.0098 42.6667 46.8954 42.6667 50.6667 42.6667C54.4379 42.6667 56.3235 42.6667 57.4951 43.8383C58.6667 45.0099 58.6667 46.8955 58.6667 50.6667V58.6667H42.6667H21.3333H5.33334C5.33334 54.8955 5.33334 53.0098 6.50492 51.8383C7.67649 50.6667 9.56211 50.6667 13.3333 50.6667C17.1046 50.6667 18.9902 50.6667 20.1618 51.8383C21.3333 53.0098 21.3333 54.8955 21.3333 58.6667V34.6667C21.3333 30.8955 21.3333 29.0099 22.5049 27.8383C23.6765 26.6667 25.5621 26.6667 29.3333 26.6667Z" fill="#1C274C"/>
<path d="M29.7225 8.06007C30.7359 6.24227 31.2425 5.33337 32 5.33337C32.7575 5.33337 33.2642 6.24227 34.2775 8.06007L34.5396 8.53036C34.8276 9.04692 34.9716 9.3052 35.1961 9.47562C35.4205 9.64604 35.7001 9.70929 36.2593 9.83581L36.7684 9.951C38.7361 10.3962 39.72 10.6188 39.9541 11.3716C40.1882 12.1243 39.5174 12.9086 38.1759 14.4773L37.8289 14.8832C37.4477 15.3289 37.2571 15.5518 37.1713 15.8275C37.0856 16.1033 37.1144 16.4007 37.172 16.9954L37.2245 17.5369C37.4273 19.6299 37.5287 20.6763 36.9159 21.1415C36.3031 21.6068 35.3819 21.1826 33.5395 20.3343L33.0628 20.1148C32.5393 19.8738 32.2775 19.7533 32 19.7533C31.7225 19.7533 31.4608 19.8738 30.9372 20.1148L30.4606 20.3343C28.6182 21.1826 27.697 21.6068 27.0841 21.1415C26.4713 20.6763 26.5727 19.6299 26.7755 17.5369L26.828 16.9954C26.8856 16.4007 26.9144 16.1033 26.8287 15.8275C26.743 15.5518 26.5524 15.3289 26.1711 14.8832L25.8241 14.4773C24.4826 12.9086 23.8119 12.1243 24.0459 11.3716C24.28 10.6188 25.2639 10.3962 27.2316 9.951L27.7407 9.83581C28.2999 9.7093 28.5795 9.64604 28.804 9.47562C29.0285 9.3052 29.1724 9.04692 29.4604 8.53036L29.7225 8.06007Z" fill="#3773FF"/>
</g>
</g>
</svg>
