<svg width="64" height="64" viewBox="0 0 64 64" fill="none" xmlns="http://www.w3.org/2000/svg">
<g id="Bold / Essentional, UI / Cup">
<g id="Vector">
<path d="M58.6665 21.7663L58.6665 21.9597C58.6665 24.255 58.6664 25.4027 58.1139 26.3416C57.5614 27.2806 56.5582 27.838 54.5517 28.9527L52.4362 30.128C53.894 25.1996 54.3804 19.9044 54.5602 15.376C54.5679 15.1818 54.5766 14.9853 54.5853 14.7866L54.5915 14.6475C56.3282 15.2506 57.3033 15.7002 57.9116 16.5443C58.6666 17.5918 58.6666 18.9833 58.6665 21.7663Z" fill="#3773FF"/>
<path d="M5.33334 21.7663L5.33335 21.9597C5.33341 24.255 5.33345 25.4027 5.88595 26.3416C6.43845 27.2806 7.44169 27.838 9.44814 28.9527L11.5648 30.1287C10.1069 25.2001 9.62047 19.9046 9.44068 15.376C9.43297 15.1818 9.42428 14.9853 9.41551 14.7866L9.40936 14.6471C7.67203 15.2504 6.69669 15.7001 6.08827 16.5443C5.33323 17.5918 5.33327 18.9833 5.33334 21.7663Z" fill="#3773FF"/>
<path fill-rule="evenodd" clip-rule="evenodd" d="M43.6724 6.25802C40.6749 5.75228 36.7565 5.33337 32.0004 5.33337C27.2443 5.33337 23.326 5.75228 20.3285 6.25802C17.2919 6.77036 15.7736 7.02654 14.505 8.58893C13.2364 10.1513 13.3034 11.84 13.4375 15.2173C13.8978 26.8117 16.3999 41.2935 30 42.5751V52H26.1862C24.915 52 23.8206 52.8973 23.5713 54.1437L23.0667 56.6667H16C14.8954 56.6667 14 57.5621 14 58.6667C14 59.7713 14.8954 60.6667 16 60.6667H48C49.1046 60.6667 50 59.7713 50 58.6667C50 57.5621 49.1046 56.6667 48 56.6667H40.9333L40.4288 54.1437C40.1795 52.8973 39.085 52 37.8139 52H34V42.5752C47.6008 41.2941 50.103 26.8119 50.5633 15.2173C50.6974 11.84 50.7644 10.1513 49.4959 8.58893C48.2273 7.02654 46.709 6.77036 43.6724 6.25802Z" fill="#3773FF"/>
</g>
</g>
</svg>
