<svg width="128" height="43" viewBox="0 0 128 43" fill="none" xmlns="http://www.w3.org/2000/svg">
<g clip-path="url(#clip0_64_112)">
<mask id="mask0_64_112" style="mask-type:luminance" maskUnits="userSpaceOnUse" x="0" y="0" width="128" height="43">
<path d="M128 0.327068H0V42.6729H128V0.327068Z" fill="white"/>
</mask>
<g mask="url(#mask0_64_112)">
<path d="M0 0.233437H37.203C43.5188 0.233437 48.8022 3.83244 53.0526 11.0304C54.0954 13.677 54.6165 16.0931 54.6165 18.2785V43.3913H49.1125V19.1808C49.1125 12.7046 45.6541 8.29358 38.7368 5.94771C37.7344 5.80739 36.9323 5.73719 36.3308 5.73719H30.1654V43.3913H24.4511V5.73719H5.50376V43.3913H0V0.233437Z" fill="#3773FF"/>
<mask id="mask1_64_112" style="mask-type:luminance" maskUnits="userSpaceOnUse" x="73" y="0" width="55" height="44">
<path d="M128 0.327068H73.1429V43.1541H128V0.327068Z" fill="white"/>
</mask>
<g mask="url(#mask1_64_112)">
<path d="M92.3005 0.233437H127.97V5.73719H93.1729C86.0752 5.73719 81.4537 8.96529 79.308 15.4214C78.8672 16.5242 78.6469 18.1382 78.6469 20.2635V23.5718C78.6469 30.1081 81.5139 34.5893 87.2479 37.0154C88.6915 37.5969 90.1553 37.8876 91.6393 37.8876H127.97V43.3913H91.188C83.93 43.3913 78.3557 39.5016 74.4662 31.7221C73.5841 29.3763 73.1429 26.7297 73.1429 23.7823V19.3913C73.1429 10.7497 77.4737 4.65449 86.1353 1.10562C88.2406 0.524164 90.2958 0.233437 92.3005 0.233437Z" fill="#0D0D0E"/>
<path d="M73.1429 43.3913V0.0830612H78.9173V43.3913H73.1429Z" fill="#3773FF"/>
</g>
<path d="M60.1504 0.327068H66.6466H73.1429V5.8609H60.1504C60.1504 3.69981 60.1504 2.48817 60.1504 0.327068Z" fill="#3773FF"/>
</g>
</g>
<defs>
<clipPath id="clip0_64_112">
<rect width="128" height="42.3459" fill="white" transform="translate(0 0.327068)"/>
</clipPath>
</defs>
</svg>
